<svg id="visual" viewBox="0 0 1000 800" width="1000" height="800" xmlns="http://www.w3.org/2000/svg" xmlns:xlink="http://www.w3.org/1999/xlink" version="1.1"><g transform="translate(518.7076174160475 389.1867283361752)"><path d="M151.1 -235.1C189 -210.7 208.2 -157.3 236.3 -105.1C264.4 -53 301.5 -2.2 309.2 54.6C316.9 111.5 295.2 174.3 250.7 206.8C206.2 239.3 138.9 241.5 77.1 257.3C15.2 273.1 -41.1 302.6 -90.6 294.5C-140.1 286.4 -182.6 240.8 -232.4 194.9C-282.1 149.1 -339 103 -347.1 49.6C-355.2 -3.7 -314.5 -64.4 -281 -124.3C-247.4 -184.3 -221 -243.6 -175.4 -264.4C-129.8 -285.2 -64.9 -267.6 -4.1 -261.2C56.6 -254.7 113.2 -259.4 151.1 -235.1" fill="#13589f"></path></g></svg>